<?xml version="1.0" encoding="UTF-8" standalone="no"?>
<!DOCTYPE svg PUBLIC "-//W3C//DTD SVG 1.1//EN"
 "http://www.w3.org/Graphics/SVG/1.1/DTD/svg11.dtd">
<!-- Generated by graphviz version 2.40.1 (20161225.0304)
 -->
<!-- Title: dependencies Pages: 1 -->
<svg width="504pt" height="284pt"
 viewBox="0.00 0.00 504.00 284.00" xmlns="http://www.w3.org/2000/svg" xmlns:xlink="http://www.w3.org/1999/xlink">
<g id="graph0" class="graph" transform="scale(1 1) rotate(0) translate(4 280)">
<title>dependencies</title>
<polygon fill="#ffffff" stroke="transparent" points="-4,4 -4,-280 500,-280 500,4 -4,4"/>
<text text-anchor="start" x="227.0091" y="-42.4" font-family="sans-serif" font-weight="bold" font-size="14.00" fill="#000000">Legend</text>
<polygon fill="#ffffb3" stroke="transparent" points="14,-10 14,-30 34,-30 34,-10 14,-10"/>
<text text-anchor="start" x="37.629" y="-15.4" font-family="sans-serif" font-size="14.00" fill="#000000"> &#160;Declarations</text>
<polygon fill="#8dd3c7" stroke="transparent" points="127,-10 127,-30 147,-30 147,-10 127,-10"/>
<text text-anchor="start" x="150.7251" y="-15.4" font-family="sans-serif" font-size="14.00" fill="#000000"> &#160;Module</text>
<polygon fill="#80b1d3" stroke="transparent" points="213,-10 213,-30 233,-30 233,-10 213,-10"/>
<text text-anchor="start" x="236.7812" y="-15.4" font-family="sans-serif" font-size="14.00" fill="#000000"> &#160;Bootstrap</text>
<polygon fill="#fdb462" stroke="transparent" points="310,-10 310,-30 330,-30 330,-10 310,-10"/>
<text text-anchor="start" x="333.6732" y="-15.4" font-family="sans-serif" font-size="14.00" fill="#000000"> &#160;Providers</text>
<polygon fill="#fb8072" stroke="transparent" points="406,-10 406,-30 426,-30 426,-10 406,-10"/>
<text text-anchor="start" x="429.7258" y="-15.4" font-family="sans-serif" font-size="14.00" fill="#000000"> &#160;Exports</text>
<g id="clust1" class="cluster">
<title>cluster_CoreModule</title>
<polygon fill="none" stroke="#000000" stroke-dasharray="1,5" points="122,-70 122,-268 374,-268 374,-70 122,-70"/>
</g>
<g id="clust3" class="cluster">
<title>cluster_CoreModule_imports</title>
<polygon fill="none" stroke="#000000" points="134,-78 134,-130 363,-130 363,-78 134,-78"/>
</g>
<g id="clust4" class="cluster">
<title>cluster_CoreModule_exports</title>
<polygon fill="none" stroke="#000000" points="130,-208 130,-260 366,-260 366,-208 130,-208"/>
</g>
<!-- ConfigModule -->
<g id="node1" class="node">
<title>ConfigModule</title>
<polygon fill="#8dd3c7" stroke="#000000" points="355.4386,-122 352.4386,-126 331.4386,-126 328.4386,-122 256.5614,-122 256.5614,-86 355.4386,-86 355.4386,-122"/>
<text text-anchor="middle" x="306" y="-99.8" font-family="Times,serif" font-size="14.00" fill="#000000">ConfigModule</text>
</g>
<!-- CoreModule -->
<g id="node3" class="node">
<title>CoreModule</title>
<polygon fill="#8dd3c7" stroke="#000000" points="234.2619,-187 231.2619,-191 210.2619,-191 207.2619,-187 147.7381,-187 147.7381,-151 234.2619,-151 234.2619,-187"/>
<text text-anchor="middle" x="191" y="-164.8" font-family="Times,serif" font-size="14.00" fill="#000000">CoreModule</text>
</g>
<!-- ConfigModule&#45;&gt;CoreModule -->
<g id="edge1" class="edge">
<title>ConfigModule&#45;&gt;CoreModule</title>
<path fill="none" stroke="#000000" d="M322.4063,-122.0225C322.4063,-139.3734 322.4063,-163 322.4063,-163 322.4063,-163 244.3915,-163 244.3915,-163"/>
<polygon fill="#000000" stroke="#000000" points="244.3915,-159.5001 234.3915,-163 244.3915,-166.5001 244.3915,-159.5001"/>
</g>
<!-- MailerModule -->
<g id="node2" class="node">
<title>MailerModule</title>
<polygon fill="#8dd3c7" stroke="#000000" points="238.3655,-122 235.3655,-126 214.3655,-126 211.3655,-122 141.6345,-122 141.6345,-86 238.3655,-86 238.3655,-122"/>
<text text-anchor="middle" x="190" y="-99.8" font-family="Times,serif" font-size="14.00" fill="#000000">MailerModule</text>
</g>
<!-- MailerModule&#45;&gt;CoreModule -->
<g id="edge2" class="edge">
<title>MailerModule&#45;&gt;CoreModule</title>
<path fill="none" stroke="#000000" d="M191,-122.1061C191,-122.1061 191,-140.991 191,-140.991"/>
<polygon fill="#000000" stroke="#000000" points="187.5001,-140.9909 191,-150.991 194.5001,-140.991 187.5001,-140.9909"/>
</g>
<!-- ConfigModule  -->
<g id="node4" class="node">
<title>ConfigModule </title>
<polygon fill="#fb8072" stroke="#000000" points="357.9376,-252 256.0624,-252 256.0624,-216 357.9376,-216 357.9376,-252"/>
<text text-anchor="middle" x="307" y="-229.8" font-family="Times,serif" font-size="14.00" fill="#000000">ConfigModule </text>
</g>
<!-- CoreModule&#45;&gt;ConfigModule  -->
<g id="edge3" class="edge">
<title>CoreModule&#45;&gt;ConfigModule </title>
<path fill="none" stroke="#000000" stroke-dasharray="5,2" d="M234.5316,-175C260.9435,-175 289.5937,-175 289.5937,-175 289.5937,-175 289.5937,-205.9775 289.5937,-205.9775"/>
<polygon fill="#000000" stroke="#000000" points="286.0938,-205.9774 289.5937,-215.9775 293.0938,-205.9775 286.0938,-205.9774"/>
</g>
<!-- MailerModule  -->
<g id="node5" class="node">
<title>MailerModule </title>
<polygon fill="#fb8072" stroke="#000000" points="238.3661,-252 137.6339,-252 137.6339,-216 238.3661,-216 238.3661,-252"/>
<text text-anchor="middle" x="188" y="-229.8" font-family="Times,serif" font-size="14.00" fill="#000000">MailerModule </text>
</g>
<!-- CoreModule&#45;&gt;MailerModule  -->
<g id="edge4" class="edge">
<title>CoreModule&#45;&gt;MailerModule </title>
<path fill="none" stroke="#000000" stroke-dasharray="5,2" d="M191,-187.1061C191,-187.1061 191,-205.991 191,-205.991"/>
<polygon fill="#000000" stroke="#000000" points="187.5001,-205.9909 191,-215.991 194.5001,-205.991 187.5001,-205.9909"/>
</g>
</g>
</svg>
