<?xml version="1.0" encoding="UTF-8" standalone="no"?>
<!DOCTYPE svg PUBLIC "-//W3C//DTD SVG 1.1//EN"
 "http://www.w3.org/Graphics/SVG/1.1/DTD/svg11.dtd">
<!-- Generated by graphviz version 2.40.1 (20161225.0304)
 -->
<!-- Title: dependencies Pages: 1 -->
<svg width="504pt" height="284pt"
 viewBox="0.00 0.00 504.00 284.00" xmlns="http://www.w3.org/2000/svg" xmlns:xlink="http://www.w3.org/1999/xlink">
<g id="graph0" class="graph" transform="scale(1 1) rotate(0) translate(4 280)">
<title>dependencies</title>
<polygon fill="#ffffff" stroke="transparent" points="-4,4 -4,-280 500,-280 500,4 -4,4"/>
<text text-anchor="start" x="227.0091" y="-42.4" font-family="sans-serif" font-weight="bold" font-size="14.00" fill="#000000">Legend</text>
<polygon fill="#ffffb3" stroke="transparent" points="14,-10 14,-30 34,-30 34,-10 14,-10"/>
<text text-anchor="start" x="37.629" y="-15.4" font-family="sans-serif" font-size="14.00" fill="#000000"> &#160;Declarations</text>
<polygon fill="#8dd3c7" stroke="transparent" points="127,-10 127,-30 147,-30 147,-10 127,-10"/>
<text text-anchor="start" x="150.7251" y="-15.4" font-family="sans-serif" font-size="14.00" fill="#000000"> &#160;Module</text>
<polygon fill="#80b1d3" stroke="transparent" points="213,-10 213,-30 233,-30 233,-10 213,-10"/>
<text text-anchor="start" x="236.7812" y="-15.4" font-family="sans-serif" font-size="14.00" fill="#000000"> &#160;Bootstrap</text>
<polygon fill="#fdb462" stroke="transparent" points="310,-10 310,-30 330,-30 330,-10 310,-10"/>
<text text-anchor="start" x="333.6732" y="-15.4" font-family="sans-serif" font-size="14.00" fill="#000000"> &#160;Providers</text>
<polygon fill="#fb8072" stroke="transparent" points="406,-10 406,-30 426,-30 426,-10 406,-10"/>
<text text-anchor="start" x="429.7258" y="-15.4" font-family="sans-serif" font-size="14.00" fill="#000000"> &#160;Exports</text>
<g id="clust1" class="cluster">
<title>cluster_ServicesModule</title>
<polygon fill="none" stroke="#000000" stroke-dasharray="1,5" points="119,-70 119,-268 377,-268 377,-70 119,-70"/>
</g>
<g id="clust3" class="cluster">
<title>cluster_ServicesModule_imports</title>
<polygon fill="none" stroke="#000000" points="267,-78 267,-130 369,-130 369,-78 267,-78"/>
</g>
<g id="clust4" class="cluster">
<title>cluster_ServicesModule_exports</title>
<polygon fill="none" stroke="#000000" points="202,-208 202,-260 306,-260 306,-208 202,-208"/>
</g>
<g id="clust6" class="cluster">
<title>cluster_ServicesModule_providers</title>
<polygon fill="none" stroke="#000000" points="127,-78 127,-130 259,-130 259,-78 127,-78"/>
</g>
<!-- CoreModule -->
<g id="node1" class="node">
<title>CoreModule</title>
<polygon fill="#8dd3c7" stroke="#000000" points="361.2619,-122 358.2619,-126 337.2619,-126 334.2619,-122 274.7381,-122 274.7381,-86 361.2619,-86 361.2619,-122"/>
<text text-anchor="middle" x="318" y="-99.8" font-family="Times,serif" font-size="14.00" fill="#000000">CoreModule</text>
</g>
<!-- ServicesModule -->
<g id="node2" class="node">
<title>ServicesModule</title>
<polygon fill="#8dd3c7" stroke="#000000" points="307.472,-187 304.472,-191 283.472,-191 280.472,-187 200.528,-187 200.528,-151 307.472,-151 307.472,-187"/>
<text text-anchor="middle" x="254" y="-164.8" font-family="Times,serif" font-size="14.00" fill="#000000">ServicesModule</text>
</g>
<!-- CoreModule&#45;&gt;ServicesModule -->
<g id="edge1" class="edge">
<title>CoreModule&#45;&gt;ServicesModule</title>
<path fill="none" stroke="#000000" d="M291.0526,-122.1061C291.0526,-122.1061 291.0526,-140.991 291.0526,-140.991"/>
<polygon fill="#000000" stroke="#000000" points="287.5527,-140.9909 291.0526,-150.991 294.5527,-140.991 287.5527,-140.9909"/>
</g>
<!-- MailService  -->
<g id="node3" class="node">
<title>MailService </title>
<polygon fill="#fb8072" stroke="#000000" points="297.918,-252 210.082,-252 210.082,-216 297.918,-216 297.918,-252"/>
<text text-anchor="middle" x="254" y="-229.8" font-family="Times,serif" font-size="14.00" fill="#000000">MailService </text>
</g>
<!-- ServicesModule&#45;&gt;MailService  -->
<g id="edge2" class="edge">
<title>ServicesModule&#45;&gt;MailService </title>
<path fill="none" stroke="#000000" stroke-dasharray="5,2" d="M254,-187.1061C254,-187.1061 254,-205.991 254,-205.991"/>
<polygon fill="#000000" stroke="#000000" points="250.5001,-205.9909 254,-215.991 257.5001,-205.991 250.5001,-205.9909"/>
</g>
<!-- MailService -->
<g id="node4" class="node">
<title>MailService</title>
<ellipse fill="#fdb462" stroke="#000000" cx="193" cy="-104" rx="58.4609" ry="18"/>
<text text-anchor="middle" x="193" y="-99.8" font-family="Times,serif" font-size="14.00" fill="#000000">MailService</text>
</g>
<!-- MailService&#45;&gt;ServicesModule -->
<g id="edge3" class="edge">
<title>MailService&#45;&gt;ServicesModule</title>
<path fill="none" stroke="#000000" d="M225.872,-119.0757C225.872,-119.0757 225.872,-140.7642 225.872,-140.7642"/>
<polygon fill="#000000" stroke="#000000" points="222.3721,-140.7642 225.872,-150.7642 229.3721,-140.7642 222.3721,-140.7642"/>
</g>
</g>
</svg>
