<?xml version="1.0" encoding="UTF-8" standalone="no"?>
<!DOCTYPE svg PUBLIC "-//W3C//DTD SVG 1.1//EN"
 "http://www.w3.org/Graphics/SVG/1.1/DTD/svg11.dtd">
<!-- Generated by graphviz version 2.40.1 (20161225.0304)
 -->
<!-- Title: dependencies Pages: 1 -->
<svg width="504pt" height="284pt"
 viewBox="0.00 0.00 504.00 284.00" xmlns="http://www.w3.org/2000/svg" xmlns:xlink="http://www.w3.org/1999/xlink">
<g id="graph0" class="graph" transform="scale(1 1) rotate(0) translate(4 280)">
<title>dependencies</title>
<polygon fill="#ffffff" stroke="transparent" points="-4,4 -4,-280 500,-280 500,4 -4,4"/>
<text text-anchor="start" x="227.0091" y="-42.4" font-family="sans-serif" font-weight="bold" font-size="14.00" fill="#000000">Legend</text>
<polygon fill="#ffffb3" stroke="transparent" points="14,-10 14,-30 34,-30 34,-10 14,-10"/>
<text text-anchor="start" x="37.629" y="-15.4" font-family="sans-serif" font-size="14.00" fill="#000000"> &#160;Declarations</text>
<polygon fill="#8dd3c7" stroke="transparent" points="127,-10 127,-30 147,-30 147,-10 127,-10"/>
<text text-anchor="start" x="150.7251" y="-15.4" font-family="sans-serif" font-size="14.00" fill="#000000"> &#160;Module</text>
<polygon fill="#80b1d3" stroke="transparent" points="213,-10 213,-30 233,-30 233,-10 213,-10"/>
<text text-anchor="start" x="236.7812" y="-15.4" font-family="sans-serif" font-size="14.00" fill="#000000"> &#160;Bootstrap</text>
<polygon fill="#fdb462" stroke="transparent" points="310,-10 310,-30 330,-30 330,-10 310,-10"/>
<text text-anchor="start" x="333.6732" y="-15.4" font-family="sans-serif" font-size="14.00" fill="#000000"> &#160;Providers</text>
<polygon fill="#fb8072" stroke="transparent" points="406,-10 406,-30 426,-30 426,-10 406,-10"/>
<text text-anchor="start" x="429.7258" y="-15.4" font-family="sans-serif" font-size="14.00" fill="#000000"> &#160;Exports</text>
<g id="clust1" class="cluster">
<title>cluster_CommonModule</title>
<polygon fill="none" stroke="#000000" stroke-dasharray="1,5" points="111,-70 111,-268 385,-268 385,-70 111,-70"/>
</g>
<g id="clust3" class="cluster">
<title>cluster_CommonModule_imports</title>
<polygon fill="none" stroke="#000000" points="255,-78 255,-130 377,-130 377,-78 255,-78"/>
</g>
<g id="clust4" class="cluster">
<title>cluster_CommonModule_exports</title>
<polygon fill="none" stroke="#000000" points="185,-208 185,-260 311,-260 311,-208 185,-208"/>
</g>
<g id="clust6" class="cluster">
<title>cluster_CommonModule_providers</title>
<polygon fill="none" stroke="#000000" points="119,-78 119,-130 247,-130 247,-78 119,-78"/>
</g>
<!-- ServicesModule -->
<g id="node1" class="node">
<title>ServicesModule</title>
<polygon fill="#8dd3c7" stroke="#000000" points="369.472,-122 366.472,-126 345.472,-126 342.472,-122 262.528,-122 262.528,-86 369.472,-86 369.472,-122"/>
<text text-anchor="middle" x="316" y="-99.8" font-family="Times,serif" font-size="14.00" fill="#000000">ServicesModule</text>
</g>
<!-- CommonModule -->
<g id="node2" class="node">
<title>CommonModule</title>
<polygon fill="#8dd3c7" stroke="#000000" points="303.6681,-187 300.6681,-191 279.6681,-191 276.6681,-187 192.3319,-187 192.3319,-151 303.6681,-151 303.6681,-187"/>
<text text-anchor="middle" x="248" y="-164.8" font-family="Times,serif" font-size="14.00" fill="#000000">CommonModule</text>
</g>
<!-- ServicesModule&#45;&gt;CommonModule -->
<g id="edge1" class="edge">
<title>ServicesModule&#45;&gt;CommonModule</title>
<path fill="none" stroke="#000000" d="M283.1739,-122.1061C283.1739,-122.1061 283.1739,-140.991 283.1739,-140.991"/>
<polygon fill="#000000" stroke="#000000" points="279.674,-140.9909 283.1739,-150.991 286.674,-140.991 279.674,-140.9909"/>
</g>
<!-- ServicesModule  -->
<g id="node3" class="node">
<title>ServicesModule </title>
<polygon fill="#fb8072" stroke="#000000" points="303.473,-252 192.527,-252 192.527,-216 303.473,-216 303.473,-252"/>
<text text-anchor="middle" x="248" y="-229.8" font-family="Times,serif" font-size="14.00" fill="#000000">ServicesModule </text>
</g>
<!-- CommonModule&#45;&gt;ServicesModule  -->
<g id="edge2" class="edge">
<title>CommonModule&#45;&gt;ServicesModule </title>
<path fill="none" stroke="#000000" stroke-dasharray="5,2" d="M248,-187.1061C248,-187.1061 248,-205.991 248,-205.991"/>
<polygon fill="#000000" stroke="#000000" points="244.5001,-205.9909 248,-215.991 251.5001,-205.991 244.5001,-205.9909"/>
</g>
<!-- LogServive -->
<g id="node4" class="node">
<title>LogServive</title>
<ellipse fill="#fdb462" stroke="#000000" cx="183" cy="-104" rx="56.1802" ry="18"/>
<text text-anchor="middle" x="183" y="-99.8" font-family="Times,serif" font-size="14.00" fill="#000000">LogServive</text>
</g>
<!-- LogServive&#45;&gt;CommonModule -->
<g id="edge3" class="edge">
<title>LogServive&#45;&gt;CommonModule</title>
<path fill="none" stroke="#000000" d="M215.6281,-118.7495C215.6281,-118.7495 215.6281,-140.5882 215.6281,-140.5882"/>
<polygon fill="#000000" stroke="#000000" points="212.1282,-140.5881 215.6281,-150.5882 219.1282,-140.5882 212.1282,-140.5881"/>
</g>
</g>
</svg>
