<?xml version="1.0" encoding="UTF-8" standalone="no"?>
<!DOCTYPE svg PUBLIC "-//W3C//DTD SVG 1.1//EN"
 "http://www.w3.org/Graphics/SVG/1.1/DTD/svg11.dtd">
<!-- Generated by graphviz version 2.40.1 (20161225.0304)
 -->
<!-- Title: dependencies Pages: 1 -->
<svg width="850pt" height="211pt"
 viewBox="0.00 0.00 850.00 211.00" xmlns="http://www.w3.org/2000/svg" xmlns:xlink="http://www.w3.org/1999/xlink">
<g id="graph0" class="graph" transform="scale(1 1) rotate(0) translate(4 207)">
<title>dependencies</title>
<polygon fill="#ffffff" stroke="transparent" points="-4,4 -4,-207 846,-207 846,4 -4,4"/>
<text text-anchor="start" x="400.0091" y="-42.4" font-family="sans-serif" font-weight="bold" font-size="14.00" fill="#000000">Legend</text>
<polygon fill="#ffffb3" stroke="transparent" points="187,-10 187,-30 207,-30 207,-10 187,-10"/>
<text text-anchor="start" x="210.629" y="-15.4" font-family="sans-serif" font-size="14.00" fill="#000000"> &#160;Declarations</text>
<polygon fill="#8dd3c7" stroke="transparent" points="300,-10 300,-30 320,-30 320,-10 300,-10"/>
<text text-anchor="start" x="323.7251" y="-15.4" font-family="sans-serif" font-size="14.00" fill="#000000"> &#160;Module</text>
<polygon fill="#80b1d3" stroke="transparent" points="386,-10 386,-30 406,-30 406,-10 386,-10"/>
<text text-anchor="start" x="409.7812" y="-15.4" font-family="sans-serif" font-size="14.00" fill="#000000"> &#160;Bootstrap</text>
<polygon fill="#fdb462" stroke="transparent" points="483,-10 483,-30 503,-30 503,-10 483,-10"/>
<text text-anchor="start" x="506.6732" y="-15.4" font-family="sans-serif" font-size="14.00" fill="#000000"> &#160;Providers</text>
<polygon fill="#fb8072" stroke="transparent" points="579,-10 579,-30 599,-30 599,-10 579,-10"/>
<text text-anchor="start" x="602.7258" y="-15.4" font-family="sans-serif" font-size="14.00" fill="#000000"> &#160;Exports</text>
<g id="clust1" class="cluster">
<title>cluster_AppModule</title>
<polygon fill="none" stroke="#000000" stroke-dasharray="1,5" points="8,-70 8,-195 834,-195 834,-70 8,-70"/>
</g>
<g id="clust3" class="cluster">
<title>cluster_AppModule_imports</title>
<polygon fill="none" stroke="#000000" points="474,-78 474,-130 826,-130 826,-78 474,-78"/>
</g>
<g id="clust6" class="cluster">
<title>cluster_AppModule_providers</title>
<polygon fill="none" stroke="#000000" points="16,-78 16,-130 466,-130 466,-78 16,-78"/>
</g>
<!-- CommonModule -->
<g id="node1" class="node">
<title>CommonModule</title>
<polygon fill="#8dd3c7" stroke="#000000" points="817.6681,-122 814.6681,-126 793.6681,-126 790.6681,-122 706.3319,-122 706.3319,-86 817.6681,-86 817.6681,-122"/>
<text text-anchor="middle" x="762" y="-99.8" font-family="Times,serif" font-size="14.00" fill="#000000">CommonModule</text>
</g>
<!-- AppModule -->
<g id="node4" class="node">
<title>AppModule</title>
<polygon fill="#8dd3c7" stroke="#000000" points="508.6571,-187 505.6571,-191 484.6571,-191 481.6571,-187 425.3429,-187 425.3429,-151 508.6571,-151 508.6571,-187"/>
<text text-anchor="middle" x="467" y="-164.8" font-family="Times,serif" font-size="14.00" fill="#000000">AppModule</text>
</g>
<!-- CommonModule&#45;&gt;AppModule -->
<g id="edge1" class="edge">
<title>CommonModule&#45;&gt;AppModule</title>
<path fill="none" stroke="#000000" d="M762,-122.2843C762,-143.3211 762,-175 762,-175 762,-175 518.953,-175 518.953,-175"/>
<polygon fill="#000000" stroke="#000000" points="518.9531,-171.5001 508.953,-175 518.953,-178.5001 518.9531,-171.5001"/>
</g>
<!-- CoreModule -->
<g id="node2" class="node">
<title>CoreModule</title>
<polygon fill="#8dd3c7" stroke="#000000" points="688.2619,-122 685.2619,-126 664.2619,-126 661.2619,-122 601.7381,-122 601.7381,-86 688.2619,-86 688.2619,-122"/>
<text text-anchor="middle" x="645" y="-99.8" font-family="Times,serif" font-size="14.00" fill="#000000">CoreModule</text>
</g>
<!-- CoreModule&#45;&gt;AppModule -->
<g id="edge2" class="edge">
<title>CoreModule&#45;&gt;AppModule</title>
<path fill="none" stroke="#000000" d="M645,-122.0225C645,-139.3734 645,-163 645,-163 645,-163 518.7331,-163 518.7331,-163"/>
<polygon fill="#000000" stroke="#000000" points="518.7331,-159.5001 508.7331,-163 518.7331,-166.5001 518.7331,-159.5001"/>
</g>
<!-- FeatureModule -->
<g id="node3" class="node">
<title>FeatureModule</title>
<polygon fill="#8dd3c7" stroke="#000000" points="583.5285,-122 580.5285,-126 559.5285,-126 556.5285,-122 482.4715,-122 482.4715,-86 583.5285,-86 583.5285,-122"/>
<text text-anchor="middle" x="533" y="-99.8" font-family="Times,serif" font-size="14.00" fill="#000000">FeatureModule</text>
</g>
<!-- FeatureModule&#45;&gt;AppModule -->
<g id="edge3" class="edge">
<title>FeatureModule&#45;&gt;AppModule</title>
<path fill="none" stroke="#000000" d="M495.5323,-122.1061C495.5323,-122.1061 495.5323,-140.991 495.5323,-140.991"/>
<polygon fill="#000000" stroke="#000000" points="492.0323,-140.9909 495.5323,-150.991 499.0323,-140.991 492.0323,-140.9909"/>
</g>
<!-- AppService -->
<g id="node5" class="node">
<title>AppService</title>
<ellipse fill="#fdb462" stroke="#000000" cx="401" cy="-104" rx="56.7406" ry="18"/>
<text text-anchor="middle" x="401" y="-99.8" font-family="Times,serif" font-size="14.00" fill="#000000">AppService</text>
</g>
<!-- AppService&#45;&gt;AppModule -->
<g id="edge4" class="edge">
<title>AppService&#45;&gt;AppModule</title>
<path fill="none" stroke="#000000" d="M441.396,-116.8419C441.396,-116.8419 441.396,-140.5231 441.396,-140.5231"/>
<polygon fill="#000000" stroke="#000000" points="437.8961,-140.523 441.396,-150.5231 444.8961,-140.5231 437.8961,-140.523"/>
</g>
<!-- LogServive -->
<g id="node6" class="node">
<title>LogServive</title>
<ellipse fill="#fdb462" stroke="#000000" cx="270" cy="-104" rx="56.1802" ry="18"/>
<text text-anchor="middle" x="270" y="-99.8" font-family="Times,serif" font-size="14.00" fill="#000000">LogServive</text>
</g>
<!-- LogServive&#45;&gt;AppModule -->
<g id="edge5" class="edge">
<title>LogServive&#45;&gt;AppModule</title>
<path fill="none" stroke="#000000" d="M270,-122.0225C270,-139.3734 270,-163 270,-163 270,-163 415.2214,-163 415.2214,-163"/>
<polygon fill="#000000" stroke="#000000" points="415.2214,-166.5001 425.2214,-163 415.2213,-159.5001 415.2214,-166.5001"/>
</g>
<!-- LoggerMiddleware -->
<g id="node7" class="node">
<title>LoggerMiddleware</title>
<ellipse fill="#fdb462" stroke="#000000" cx="110" cy="-104" rx="85.6551" ry="18"/>
<text text-anchor="middle" x="110" y="-99.8" font-family="Times,serif" font-size="14.00" fill="#000000">LoggerMiddleware</text>
</g>
<!-- LoggerMiddleware&#45;&gt;AppModule -->
<g id="edge6" class="edge">
<title>LoggerMiddleware&#45;&gt;AppModule</title>
<path fill="none" stroke="#000000" d="M110,-122.2843C110,-143.3211 110,-175 110,-175 110,-175 414.9978,-175 414.9978,-175"/>
<polygon fill="#000000" stroke="#000000" points="414.9978,-178.5001 424.9978,-175 414.9977,-171.5001 414.9978,-178.5001"/>
</g>
</g>
</svg>
